# xmcd
#
# Track frame offsets: 
#        150
#        18262
#        30037
#        43616
#        57566
#        72416
#        92891
#        108416
#
# Disc length: 1671 seconds
#
# Revision: 0
# Processed by: cddbd v1.5.2PL0 Copyright (c) Steve Scherf et al.
# Submitted via: ExactAudioCopy v1.2
#
DISCID=61068508
DTITLE=Blueswater - Queens Of The Blues ft. Nicole Smit
DYEAR=2016
DGENRE=Bluesrock
TTITLE0=Love Me Like A Man
TTITLE1=Got My Mojo Working
TTITLE2=Hound Dog
TTITLE3=Cow Cow Boogie
TTITLE4=Crazy Blues
TTITLE5=Blues For Mama
TTITLE6=In The Basement
TTITLE7=Made Up Mind
EXTD=
EXTT0=
EXTT1=
EXTT2=
EXTT3=
EXTT4=
EXTT5=
EXTT6=
EXTT7=
PLAYORDER=
